<?xml version="1.0" encoding="UTF-8"?>
<svg width="63px" height="63px" viewBox="0 0 63 63" version="1.1" xmlns="http://www.w3.org/2000/svg" xmlns:xlink="http://www.w3.org/1999/xlink">
    <!-- Generator: Sketch 55.2 (78181) - https://sketchapp.com -->
    <title>logo</title>
    <desc>Created with Sketch.</desc>
    <g id="Page-1" stroke="none" stroke-width="1" fill="none" fill-rule="evenodd">
        <g id="fav" transform="translate(1.739214, 2.221576)" fill-rule="nonzero">
            <path d="M37.226712,52.4855311 L37.226712,51.4514569 L28.226712,51.4514569 L28.226712,52.4855311 L27.9958483,52.4855311 C25.6666457,52.4855311 22.4962025,52.4855311 18.4845188,52.4855311 C16.9424848,52.4855311 15.2761556,52.4855311 13.4855311,52.4855311 C11.8153852,52.4855311 10.2647751,51.9737378 8.98197731,51.0984278 C6.87120491,49.6581539 5.48553106,47.2336632 5.48553106,44.4855311 L5.48553106,13.4855311 C5.48553106,9.06725306 9.06725306,5.48553106 13.4855311,5.48553106 L44.4855311,5.48553106 C48.9038091,5.48553106 52.4855311,9.06725306 52.4855311,13.4855311 L52.4855311,44.4855311 C52.4855311,48.9038091 48.9038091,52.4855311 44.4855311,52.4855311 C41.2413015,52.4855311 38.9184735,52.4855311 37.517047,52.4855311 L37.226712,52.4855311 Z M37.076193,51.4855311 C38.553832,51.4855311 41.0236114,51.4855311 44.4855311,51.4855311 C48.3515243,51.4855311 51.4855311,48.3515243 51.4855311,44.4855311 L51.4855311,13.4855311 C51.4855311,9.61953781 48.3515243,6.48553106 44.4855311,6.48553106 L13.4855311,6.48553106 L13.4855311,6.48553106 C9.61953781,6.48553106 6.48553106,9.61953781 6.48553106,13.4855311 L6.48553106,44.4855311 C6.48553106,48.3515243 9.61953781,51.4855311 13.4855311,51.4855311 C19.9452421,51.4855311 24.7900253,51.4855311 28.0198808,51.4855311" id="Rectangle" fill="#B8CEFF" transform="translate(28.985531, 28.985531) rotate(-15.000000) translate(-28.985531, -28.985531) "></path>
            <path d="M24.8955518,27.1729555 L24.8955518,35.3799868 C24.8955518,35.9322715 25.3432671,36.3799868 25.8955518,36.3799868 L30.4053174,36.3799868 C33.8330518,36.3799868 35.8643018,34.4756899 35.8643018,31.3018618 C35.8643018,28.1788149 33.7060987,26.1729555 30.3799268,26.1729555 L25.8955518,26.1729555 C25.3432671,26.1729555 24.8955518,26.6206708 24.8955518,27.1729555 Z M15.5771924,55.1334676 L15.5771924,23.1397524 C15.5771924,20.9306134 17.3680534,19.1397524 19.5771924,19.1397524 L31.7002393,19.1397524 C40.2568799,19.1397524 45.3857862,23.6592837 45.3857862,31.2256899 C45.3857862,35.7198305 43.1514112,39.8331118 39.1396924,41.5850649 L45.7010252,54.3204296 C45.9539687,54.8113859 45.7610212,55.4144357 45.270065,55.6673792 C45.1284266,55.7403521 44.9714016,55.7784243 44.8120703,55.7784243 L36.3033035,55.7784243 C36.1123403,55.7784243 35.9380537,55.6696525 35.8541503,55.4981091 L29.9939799,43.516789 C29.826173,43.1737021 29.4775998,42.9561587 29.0956735,42.9561587 L25.8955518,42.9561587 C25.3432671,42.9561587 24.8955518,43.4038739 24.8955518,43.9561587 L24.8955518,53.8460526" id="R" stroke="#B8CEFF"></path>
        </g>
    </g>
</svg>